PathFileType	4	(X/Y/Z)	/Users/itak/Documents/Research/Walk-IL/dataset/trc/00419_00012.trc
DataRate	CameraRate	NumFrames	NumMarkers	Units	OrigDataRate	OrigDataStartFrame	OrigNumFrames
100.000000	100.000000	4	54	mm	100.000000	393	524
Frame#	Time	RPSI			LPSI			L3			STRN			T10			C7			CLAV			RBAK			LBAK			LSHO			LUPA			LAEL			LAOL			LWTS			LWPS			LFRA			LIFD			LHPS			LHTS			RSHO			RUPA			RAEL			RAOL			RWTS			RWPS			RFRA			RIFD			RHTS			RHPS			RBHD			LFHD			RFHD			LBHD			LHIP			RHIP			RASI			LASI			LKNE			LTHI			LANK			LTIP			LTOE			LMT1			LMT5			LHEE			RKNE			RTHI			RANK			RTIP			RTOE			RMT1			RMT5			RHEE			*53			
		X1	Y1	Z1	X2	Y2	Z2	X3	Y3	Z3	X4	Y4	Z4	X5	Y5	Z5	X6	Y6	Z6	X7	Y7	Z7	X8	Y8	Z8	X9	Y9	Z9	X10	Y10	Z10	X11	Y11	Z11	X12	Y12	Z12	X13	Y13	Z13	X14	Y14	Z14	X15	Y15	Z15	X16	Y16	Z16	X17	Y17	Z17	X18	Y18	Z18	X19	Y19	Z19	X20	Y20	Z20	X21	Y21	Z21	X22	Y22	Z22	X23	Y23	Z23	X24	Y24	Z24	X25	Y25	Z25	X26	Y26	Z26	X27	Y27	Z27	X28	Y28	Z28	X29	Y29	Z29	X30	Y30	Z30	X31	Y31	Z31	X32	Y32	Z32	X33	Y33	Z33	X34	Y34	Z34	X35	Y35	Z35	X36	Y36	Z36	X37	Y37	Z37	X38	Y38	Z38	X39	Y39	Z39	X40	Y40	Z40	X41	Y41	Z41	X42	Y42	Z42	X43	Y43	Z43	X44	Y44	Z44	X45	Y45	Z45	X46	Y46	Z46	X47	Y47	Z47	X48	Y48	Z48	X49	Y49	Z49	X50	Y50	Z50	X51	Y51	Z51	X52	Y52	Z52	X53	Y53	Z53	X54	Y54	Z54	

394	3.93	131.7312622070312	950.07373046875	73.61194610595703	256.195068359375	933.670166015625	30.16862869262695	185.9511413574219	1027.554931640625	44.86813735961914	255.3628845214844	1201.120483398438	269.7197875976562	182.0827178955078	1130.555053710938	30.74857330322266	190.5005950927734	1381.51416015625	55.6530647277832	233.0179901123047	1315.069946289062	210.2108764648438	118.4264450073242	1231.5986328125	41.21030426025391	285.6707153320312	1349.729125976562	13.23625564575195	358.0286254882812	1370.079711914062	80.38571929931641	415.8726806640625	1259.471557617188	25.40354537963867	439.0713806152344	1063.139526367188	5.816230297088623	357.8469543457031	1045.598266601562	-17.35983467102051	441.9031677246094	838.9269409179688	86.85120391845703	472.2044067382812	831.4930419921875	10.17083930969238	454.11865234375	957.5343017578125	3.664217710494995	437.1773071289062	660.0376586914062	66.33506011962891	469.2496032714844	745.4348754882812	18.30826759338379	464.7967224121094	740.2842407226562	81.94164276123047	57.16840362548828	1362.034301757812	155.4913024902344	-1.995118141174316	1296.181884765625	167.0638122558594	-31.59743690490723	1040.451538085938	243.3225555419922	48.50992202758789	1020.438720703125	195.4450378417969	86.50303649902344	969.9051513671875	446.1116027832031	25.2431755065918	928.6557006835938	450.9288940429688	-26.88743019104004	1001.748046875	300.2630310058594	136.2417297363281	858.59326171875	570.9251098632812	103.8944244384766	915.5745849609375	537.7385864257812	53.35501098632812	875.0869140625	515.6777954101562	102.0717315673828	1562.45849609375	118.3167953491211	285.8011779785156	1596.496215820312	183.0299835205078	172.6111450195312	1591.713256835938	228.9509429931641	243.2097778320312	1562.64208984375	44.57682800292969	390.5672912597656	936.9810791015625	82.38027954101562	50.85814666748047	939.0812377929688	190.5994567871094	139.4842681884766	959.5568237304688	299.9365844726562	382.2821044921875	954.3595581054688	202.7972869873047	460.088623046875	502.3790588378906	314.6189270019531	444.4575805664062	620.4468994140625	249.1587219238281	457.7794494628906	45.56852722167969	272.8002014160156	475.1451721191406	266.4422912597656	286.8931579589844	491.7666625976562	74.82492828369141	483.7231140136719	430.6760864257812	60.51778411865234	431.5547485351562	523.9848022460938	51.8928337097168	380.5781860351562	390.9791259765625	42.35013961791992	264.3029479980469	149.5623474121094	452.9315185546875	222.0684661865234	103.9433517456055	712.9904174804688	272.8637390136719	173.4061584472656	50.1345100402832	98.22308349609375	179.0573425292969	326.4306945800781	205.0536804199219	319.779541015625	33.38362503051758	219.0144348144531	305.4087829589844	37.33379745483398	136.2798004150391	211.1158294677734	41.79479598999023	171.094482421875	180.5829315185547	43.14044189453125	7.795359134674072	nan	nan	nan	
395	3.94	137.0660858154297	948.7713012695312	79.25328063964844	262.0862426757812	932.298095703125	37.61119842529297	191.4410552978516	1026.09423828125	50.84640121459961	258.1987609863281	1199.833862304688	276.9219055175781	187.3722839355469	1129.230102539062	36.28236770629883	195.3827819824219	1380.234741210938	62.2833366394043	236.5007629394531	1313.768432617188	217.1909637451172	123.3942108154297	1230.441040039062	46.78005981445312	290.9378662109375	1348.556396484375	20.68399620056152	362.6786804199219	1368.761352539062	88.44310760498047	420.7591247558594	1258.1513671875	33.7381477355957	443.9002075195312	1061.947509765625	13.96339130401611	362.8197021484375	1044.427978515625	-9.748610496520996	445.6411743164062	836.955078125	93.14132690429688	476.71337890625	830.3446655273438	16.71439552307129	458.8552856445312	956.4049072265625	11.19546508789062	441.1561584472656	658.3231811523438	70.52913665771484	473.6798095703125	744.255859375	23.86596488952637	468.5134887695312	738.3626098632812	87.39747619628906	61.03583908081055	1360.589111328125	160.8857421875	1.886053681373596	1294.58544921875	171.9819641113281	-27.51529502868652	1038.824584960938	248.7808532714844	52.36992263793945	1018.870666503906	200.9970855712891	90.52285766601562	970.7218627929688	452.1722717285156	29.55491638183594	929.0155639648438	457.3666076660156	-22.71327018737793	1000.554504394531	305.9865417480469	141.4386138916016	861.0927124023438	577.9995727539062	108.5320434570312	917.4510498046875	544.268310546875	58.31642532348633	876.4481811523438	522.74609375	106.8826370239258	1561.5078125	125.053840637207	290.6024475097656	1594.957275390625	190.0118865966797	177.3404235839844	1590.52880859375	235.8037414550781	248.1008605957031	1561.242553710938	51.50909042358398	395.6856994628906	935.2909545898438	91.51995086669922	54.3760986328125	937.9568481445312	194.9926605224609	141.4507141113281	958.53466796875	305.6396789550781	385.8268432617188	953.1325073242188	211.9443817138672	462.4119873046875	500.3821716308594	323.9859924316406	447.7236938476562	618.8916015625	257.8245544433594	464.6355285644531	42.44331359863281	302.198486328125	479.6230163574219	263.9715270996094	306.4927673339844	491.3721618652344	78.70166015625	512.9551391601562	432.119873046875	63.11562728881836	459.2109985351562	527.0729370117188	52.03289794921875	411.9513244628906	398.1701049804688	39.06090545654297	291.6743469238281	152.1172180175781	451.9179077148438	226.320068359375	106.1479263305664	711.8976440429688	277.5275268554688	173.8233489990234	50.30447387695312	98.10192108154297	181.0818481445312	325.2464599609375	208.3253173828125	319.69580078125	33.29616165161133	219.31005859375	305.4371948242188	37.19985580444336	136.4847717285156	211.2245330810547	41.7335319519043	171.1537933349609	181.2071228027344	43.72328948974609	7.604398727416992	nan	nan	nan	
396	3.95	142.3121185302734	947.4205932617188	85.03044891357422	267.8558959960938	930.8834228515625	45.15437698364258	196.97802734375	1024.60888671875	57.06823348999023	260.970458984375	1198.452270507812	284.1421203613281	192.7974548339844	1127.8349609375	42.00017547607422	200.2773132324219	1378.886840820312	68.95310974121094	239.9739685058594	1312.3984375	224.2361145019531	128.4073181152344	1229.208251953125	52.39897918701172	296.1815185546875	1347.237548828125	28.22499656677246	367.3272399902344	1367.373046875	96.57467651367188	425.6449584960938	1256.72119140625	42.17718505859375	448.7229309082031	1060.63232421875	22.29238128662109	367.7796020507812	1043.115478515625	-1.855945825576782	449.5181579589844	834.9047241210938	99.69798278808594	481.22314453125	829.06982421875	23.49394416809082	463.6015319824219	955.163330078125	18.95108604431152	445.0580139160156	656.5457763671875	75.02728271484375	478.05029296875	742.9586181640625	29.6840991973877	472.2454223632812	736.3406982421875	93.10240936279297	64.92533111572266	1359.064819335938	166.3016204833984	5.794289112091064	1292.908081054688	176.8865661621094	-23.43342781066895	1037.111328125	254.1598510742188	56.2318000793457	1017.222778320312	206.4731140136719	94.45641326904297	970.8636474609375	458.0311584472656	33.69136047363281	928.8273315429688	463.5201416015625	-18.57057952880859	999.1626586914062	311.5913391113281	146.3554534912109	862.4622802734375	584.515625	113.0147705078125	918.3524780273438	550.4408569335938	63.03643417358398	877.06640625	529.3887939453125	111.6249618530273	1560.462890625	131.7870178222656	295.3397521972656	1593.405029296875	196.976318359375	182.0071411132812	1589.29296875	242.6429443359375	252.9313507080078	1559.80224609375	58.42606735229492	400.8084106445312	933.6004638671875	100.7617416381836	57.89431762695312	936.755859375	199.5456085205078	143.4559936523438	957.3694458007812	311.4148864746094	389.3825988769531	951.8092041015625	221.0984191894531	464.5628051757812	498.220458984375	332.9924926757812	450.9485473632812	617.1165161132812	266.2107543945312	470.8322143554688	40.06649017333984	330.4664916992188	483.6291809082031	261.8217468261719	325.3480529785156	489.7801208496094	82.92818450927734	540.7282104492188	432.5717468261719	66.05762481689453	485.3285522460938	529.1781005859375	52.87058258056641	442.1136779785156	404.8245849609375	36.35149002075195	317.7470703125	154.6583099365234	450.835693359375	230.5993499755859	108.4024429321289	710.7060546875	282.2407836914062	174.3232116699219	50.49573516845703	97.90843963623047	183.0699005126953	323.9931030273438	211.6422271728516	319.6140441894531	33.21802520751953	219.6270751953125	305.5389404296875	37.11054611206055	136.7102813720703	211.3450012207031	41.68296432495117	171.1612243652344	181.9849853515625	44.3611946105957	7.325540065765381	nan	nan	nan	
397	3.96	147.4746398925781	946.0429077148438	90.94693756103516	273.511474609375	929.4490356445312	52.79480361938477	202.5326690673828	1023.126647949219	63.51658248901367	263.6990051269531	1197.000122070312	291.3924865722656	198.3651580810547	1126.399658203125	47.95331954956055	205.1832275390625	1377.49609375	75.67295074462891	243.4365692138672	1310.9765625	231.3503112792969	133.4624938964844	1227.921142578125	58.09313583374023	301.4080505371094	1345.800048828125	35.86494827270508	371.9770812988281	1365.933349609375	104.7930450439453	430.5380859375	1255.206665039062	50.739013671875	453.5570373535156	1059.216796875	30.8004093170166	372.7489624023438	1041.689208984375	6.281223297119141	453.517578125	832.8103637695312	106.5433120727539	485.7466125488281	827.6921997070312	30.53696441650391	468.3675842285156	953.8280639648438	26.93679237365723	448.8700561523438	654.734619140625	79.85906982421875	482.3723449707031	741.56689453125	35.79374313354492	475.9967346191406	734.2487182617188	99.09414672851562	68.84104156494141	1357.4931640625	171.7532501220703	9.734132766723633	1291.181884765625	181.7933044433594	-19.35284233093262	1035.340087890625	259.4493713378906	60.18135452270508	1015.522583007812	211.9053039550781	98.29767608642578	970.348388671875	463.7109680175781	37.64445114135742	928.0971069335938	469.3890075683594	-14.48872566223145	997.5946044921875	317.0554504394531	150.9531555175781	862.6858520507812	590.5099487304688	117.3046646118164	918.2742919921875	556.278564453125	67.49050140380859	876.8980712890625	535.5844116210938	116.2957763671875	1559.344482421875	138.5158996582031	300.0131530761719	1591.857543945312	203.9312744140625	186.6096649169922	1588.0322265625	249.4671325683594	257.7046203613281	1558.334228515625	65.33187866210938	405.9186706542969	931.927734375	110.073860168457	61.45120239257812	935.4903564453125	204.2818145751953	145.5455169677734	956.0814819335938	317.27783203125	392.9588623046875	950.4299926757812	230.2534484863281	466.5617065429688	495.9811401367188	341.7063598632812	454.08935546875	615.1636962890625	274.357666015625	476.3528747558594	38.37874221801758	357.3941040039062	487.190185546875	259.9965209960938	343.4174499511719	487.1427001953125	87.47756958007812	566.8226318359375	432.1438598632812	69.24337005615234	509.7466125488281	530.3657836914062	54.4116325378418	470.7850341796875	410.9396057128906	34.1080207824707	342.3431396484375	157.1856689453125	449.6958312988281	234.9028015136719	110.7061462402344	709.4279174804688	286.9960327148438	174.9005889892578	50.70856475830078	97.64380645751953	184.9960479736328	322.6883544921875	214.9891204833984	319.5314331054688	33.15217208862305	219.9592590332031	305.7192993164062	37.07024002075195	136.9642639160156	211.4784240722656	41.65200805664062	171.1144866943359	182.9185638427734	45.06657028198242	6.966243267059326	nan	nan	nan	
